<mxfile host="app.diagrams.net" agent="Mozilla/5.0 (Windows NT 10.0; Win64; x64) AppleWebKit/537.36 (KHTML, like Gecko) Chrome/132.0.0.0 Safari/537.36" version="26.0.13">
  <diagram name="Sayfa -1" id="rw0tKw_8H0kHu80OvDa4">
    <mxGraphModel dx="712" dy="730" grid="1" gridSize="10" guides="1" tooltips="1" connect="1" arrows="1" fold="1" page="1" pageScale="1" pageWidth="827" pageHeight="1169" math="0" shadow="0">
      <root>
        <mxCell id="0" />
        <mxCell id="1" parent="0" />
        <mxCell id="nmIxJDxcnUYOFE0mVBFy-7" value="Sertifika Basım Süreci" style="swimlane;childLayout=stackLayout;resizeParent=1;resizeParentMax=0;startSize=20;html=1;" vertex="1" parent="1">
          <mxGeometry x="54.000000000000455" y="60" width="974" height="480" as="geometry" />
        </mxCell>
        <mxCell id="nmIxJDxcnUYOFE0mVBFy-8" value="DersEra program sorumlusu" style="swimlane;startSize=20;html=1;" vertex="1" parent="nmIxJDxcnUYOFE0mVBFy-7">
          <mxGeometry y="20" width="250" height="460" as="geometry" />
        </mxCell>
        <mxCell id="nmIxJDxcnUYOFE0mVBFy-9" value="Lane 2" style="swimlane;startSize=20;html=1;" vertex="1" parent="nmIxJDxcnUYOFE0mVBFy-7">
          <mxGeometry x="250" y="20" width="200" height="460" as="geometry" />
        </mxCell>
        <mxCell id="nmIxJDxcnUYOFE0mVBFy-10" value="Lane 3" style="swimlane;startSize=20;html=1;" vertex="1" parent="nmIxJDxcnUYOFE0mVBFy-7">
          <mxGeometry x="450" y="20" width="190" height="460" as="geometry" />
        </mxCell>
        <mxCell id="nmIxJDxcnUYOFE0mVBFy-12" value="Lane 4" style="swimlane;startSize=20;html=1;" vertex="1" parent="nmIxJDxcnUYOFE0mVBFy-7">
          <mxGeometry x="640" y="20" width="170" height="460" as="geometry" />
        </mxCell>
        <mxCell id="nmIxJDxcnUYOFE0mVBFy-13" value="Lane 5" style="swimlane;startSize=20;html=1;" vertex="1" parent="nmIxJDxcnUYOFE0mVBFy-7">
          <mxGeometry x="810" y="20" width="164" height="460" as="geometry" />
        </mxCell>
      </root>
    </mxGraphModel>
  </diagram>
</mxfile>
